<svg width="2747" height="712" viewBox="0 0 2747 712" fill="none" xmlns="http://www.w3.org/2000/svg">
<path d="M172.664 542.791V416.909H265.419V469.912H459.763C496.865 469.912 504.668 434.577 503.932 416.909H596.687C601.104 496.414 543.684 536.166 497.307 540.583L172.664 542.791Z" fill="#13670B"/>
<path fill-rule="evenodd" clip-rule="evenodd" d="M31.3184 357.28V8.34375H713.731V673.088H31.3184V416.908H93.1551V604.626H649.686V70.1805H93.1551V291.026H172.659V123.183H450.925C590.057 120.975 625.393 271.15 532.637 319.736C548.097 323.417 579.015 343.587 587.849 377.156H490.677C488.468 371.266 479.193 359.488 459.758 359.488H31.3184V357.28ZM442.083 193.854H265.407V291.026H442.083C468.916 291.026 490.669 269.273 490.669 242.44C490.669 215.606 468.916 193.854 442.083 193.854Z" fill="#13670B"/>
<rect x="353.758" y="556.042" width="61.8367" height="30.9184" fill="#13670B"/>
<path d="M1098.04 537.804C1098.04 577.334 1085.29 610.648 1059.79 637.745C1034.6 664.523 1003.52 677.913 966.543 677.913C931.157 677.913 901.51 663.408 877.6 634.398V669.305H819.262V315.925H882.86V431.646C902.307 407.737 929.882 395.782 965.587 395.782C1002.89 395.782 1034.29 409.49 1059.79 436.906C1085.29 464.004 1098.04 497.636 1098.04 537.804ZM1034.92 537.804C1034.92 514.532 1027.43 495.564 1012.45 480.9C997.466 465.916 978.976 458.265 956.979 457.947C935.302 457.628 916.971 464.96 901.988 479.943C887.005 494.926 879.513 513.576 879.513 535.891C879.513 558.525 887.005 577.653 901.988 593.273C916.971 608.575 935.461 616.226 957.458 616.226C979.773 616.226 998.263 608.894 1012.93 594.23C1027.59 579.247 1034.92 560.438 1034.92 537.804ZM1390.29 533.022C1390.29 544.817 1389.18 555.497 1386.94 565.06H1181.8C1186.26 580.681 1195.03 593.114 1208.1 602.359C1221.17 611.604 1236.63 616.226 1254.49 616.226C1275.53 616.226 1294.02 608.416 1309.96 592.795H1380.73C1372.12 617.342 1355.86 637.745 1331.95 654.003C1308.04 669.943 1282.06 677.913 1254.01 677.913C1215.12 677.913 1181.96 664.205 1154.55 636.788C1127.45 609.372 1113.9 576.218 1113.9 537.326C1113.9 497.796 1127.61 464.322 1155.02 436.906C1182.76 409.49 1215.91 395.782 1254.49 395.782C1290.83 395.782 1322.55 409.49 1349.65 436.906C1376.74 464.004 1390.29 496.042 1390.29 533.022ZM1326.21 508.634C1322.39 494.289 1313.46 482.334 1299.44 472.77C1285.41 462.888 1269.95 457.947 1253.05 457.947C1236.47 457.947 1221.49 462.569 1208.1 471.814C1195.03 480.74 1185.63 493.014 1179.89 508.634H1326.21ZM1689.95 669.305H1631.61V635.354C1614.71 650.975 1599.25 661.973 1585.22 668.349C1571.52 674.725 1556.05 677.913 1538.84 677.913C1501.86 677.913 1471.1 664.683 1446.55 638.223C1422.32 611.445 1410.21 577.812 1410.21 537.326C1410.21 496.839 1422.64 463.207 1447.51 436.428C1472.37 409.331 1503.61 395.782 1541.23 395.782C1575.02 395.782 1605.15 410.606 1631.61 440.254V404.39H1689.95V669.305ZM1629.69 537.804C1629.69 513.894 1622.2 494.608 1607.22 479.943C1592.56 464.96 1573.27 457.468 1549.36 457.468C1528.64 457.468 1510.79 465.279 1495.8 480.9C1481.14 496.52 1473.81 515.329 1473.81 537.326C1473.81 559.322 1481.3 577.971 1496.28 593.273C1511.58 608.575 1530.23 616.226 1552.23 616.226C1574.23 616.226 1592.56 608.735 1607.22 593.752C1622.2 578.45 1629.69 559.8 1629.69 537.804ZM1989.84 583.232C1981.24 610.966 1964.66 633.76 1940.11 651.612C1915.88 669.146 1888.63 677.913 1858.34 677.913C1818.81 677.913 1785.18 664.364 1757.45 637.267C1730.03 609.851 1716.32 576.537 1716.32 537.326C1716.32 498.433 1730.03 465.119 1757.45 437.385C1785.18 409.65 1818.33 395.782 1856.91 395.782C1887.83 395.782 1915.41 404.708 1939.63 422.561C1964.18 440.413 1980.92 463.685 1989.84 492.376H1917.16C1904.09 469.423 1883.85 457.947 1856.43 457.947C1834.11 457.947 1815.78 465.438 1801.44 480.421C1787.41 495.405 1780.4 514.532 1780.4 537.804C1780.4 560.119 1787.89 578.768 1802.87 593.752C1817.86 608.416 1836.35 615.748 1858.34 615.748C1884.16 615.748 1903.77 604.909 1917.16 583.232H1989.84ZM2294.28 537.326C2294.28 576.218 2280.57 609.372 2253.16 636.788C2226.06 664.205 2193.06 677.913 2154.17 677.913C2115.28 677.913 2081.97 664.205 2054.23 636.788C2026.5 609.372 2012.63 576.218 2012.63 537.326C2012.63 498.433 2026.5 465.119 2054.23 437.385C2081.97 409.65 2115.28 395.782 2154.17 395.782C2193.06 395.782 2226.06 409.65 2253.16 437.385C2280.57 464.801 2294.28 498.114 2294.28 537.326ZM2230.68 536.847C2230.68 514.851 2223.19 496.202 2208.21 480.9C2193.54 465.598 2175.37 457.947 2153.69 457.947C2132.02 457.947 2113.69 465.598 2098.7 480.9C2083.72 496.202 2076.23 514.851 2076.23 536.847C2076.23 558.844 2083.72 577.493 2098.7 592.795C2113.69 608.097 2132.02 615.748 2153.69 615.748C2175.37 615.748 2193.54 608.097 2208.21 592.795C2223.19 577.493 2230.68 558.844 2230.68 536.847ZM2555.68 669.305H2492.08V523.936C2492.08 506.403 2488.1 491.579 2480.13 479.465C2470.88 465.119 2457.49 457.947 2439.96 457.947C2424.34 457.947 2411.43 462.888 2401.23 472.77C2389.75 484.247 2384.01 499.868 2384.01 519.633V669.305H2320.41V404.39H2378.75V428.777C2398.84 406.781 2423.22 395.782 2451.91 395.782C2483.47 395.782 2508.98 406.94 2528.42 429.255C2546.6 450.614 2555.68 477.712 2555.68 510.547V669.305Z" fill="#040817"/>
<rect x="819.242" y="2" width="63.6586" height="318.791" fill="#040817"/>
<path d="M1122.17 246.937C1122.17 234.084 1127.32 115.844 1127.32 115.844C1102.64 148.745 1075.91 160.398 1065.62 162.112V257.218C1065.62 272.641 1054.12 283.803 1039.92 288.064C1014.22 295.775 984.227 281.209 962.807 272.641C976.516 288.921 1014.67 325.288 1063.05 313.768C1117.03 300.916 1122.17 259.789 1122.17 246.937Z" fill="#13670B"/>
<ellipse cx="996.215" cy="138.98" rx="30.8454" ry="28.2749" fill="#13670B"/>
<ellipse cx="2144.24" cy="298.345" rx="30.8454" ry="28.2749" fill="#13670B"/>
<ellipse cx="2531.21" cy="298.345" rx="30.8454" ry="28.2749" fill="#13670B"/>
<ellipse cx="2231.63" cy="298.345" rx="30.8454" ry="28.2749" fill="#13670B"/>
<path fill-rule="evenodd" clip-rule="evenodd" d="M1281.55 231.515C1281.55 241.797 1277.83 265.588 1260.98 275.213C1242.99 285.495 1222.43 290.636 1168.45 264.931C1182.16 289.779 1225 326.622 1278.98 308.629C1296.97 303.488 1332.96 280.868 1332.96 231.515V228.945H2561.63V43.8724C2543.12 70.6051 2517.93 85.8564 2507.65 90.1405V182.677H2260.89V43.8724C2236.21 74.7178 2214.62 87.5701 2206.91 90.1405V182.677H1983.28C1985.34 116.873 1937.87 93.5678 1913.88 90.1405H1651.69C1655.12 86.7132 1661.97 75.2319 1661.97 56.7247C1661.97 38.2175 1628.56 7.88615 1605.42 0.174805C1613.99 13.8839 1629.59 45.4147 1623.42 61.8656C1617.25 78.3164 1598.57 87.5701 1590 90.1405H1541.16V136.409H1893.31C1928.27 142.578 1930.16 169.824 1926.73 182.677H1327.82V69.5769C1231.17 75.746 1179.59 137.265 1165.88 167.254V231.515H1281.55ZM1278.97 182.679V131.27C1264.4 133.84 1232.7 144.636 1222.42 167.256V182.679H1278.97Z" fill="#13670B"/>
</svg>
