<svg width="80" height="80" viewBox="0 0 80 80" fill="none" xmlns="http://www.w3.org/2000/svg">
<circle cx="40" cy="40" r="40" fill="#11215B"/>
<g clip-path="url(#clip0_396_1175)">
<path d="M59.1874 56.8537L54.886 52.5898C57.523 48.6346 56.7095 43.3422 53.0066 40.3405C49.3038 37.3389 43.9131 37.6099 40.5326 40.9623C37.1523 44.3146 36.8814 49.6631 39.9062 53.3378C42.9312 57.0127 48.2656 57.8169 52.2536 55.1986L56.5503 59.4673C57.088 60.0003 57.9576 60.0003 58.4954 59.4673L59.1826 58.7847C59.3111 58.6591 59.4134 58.5091 59.4834 58.3435C59.5533 58.1779 59.5896 58 59.5901 57.8202C59.5905 57.6404 59.5551 57.4624 59.486 57.2964C59.4168 57.1305 59.3153 56.9799 59.1874 56.8537ZM52.1464 49.8689C51.5941 51.0157 50.6649 51.9383 49.5142 52.4825C48.7663 52.8425 47.9478 53.0343 47.1207 53.039C44.0347 53.039 41.5338 50.5563 41.5338 47.4986C41.5338 44.4361 44.0351 41.9582 47.1207 41.9535C50.2064 41.9535 52.7074 44.4314 52.7124 47.4939C52.7074 48.3493 52.497 49.1487 52.1464 49.8689ZM30.4155 49.2285C29.6299 49.2285 28.9988 48.5974 28.9942 47.821C28.9942 47.045 29.63 46.4138 30.4155 46.4138H34.8944C35.0114 45.0906 35.3432 43.8235 35.8576 42.6594H30.4155C29.6299 42.6594 28.9988 42.0285 28.9942 41.2521C28.9942 40.4761 29.63 39.8446 30.4155 39.8446H37.5875C38.9936 38.1339 40.8372 36.8365 42.9222 36.0905H30.4156C29.6302 36.0905 28.999 35.4595 28.9943 34.6831C28.9943 33.9071 29.6303 33.2758 30.4156 33.2758H52.2634C53.044 33.2758 53.6847 33.9069 53.6847 34.6831C53.68 35.4591 53.049 36.0858 52.2634 36.0905H51.1928C55.0502 37.4698 57.9579 40.677 58.9306 44.6322V24.3977C58.9352 22.0554 56.9995 20.1338 54.6339 20.1338H24.7115C22.3458 20.1338 20.4102 22.0507 20.4102 24.3977V54.8575C20.4102 57.2045 22.3458 59.1214 24.7115 59.1214H43.642C39.0507 57.7889 35.6611 53.9225 34.9739 49.2285H30.4155ZM30.4155 26.7026H52.2631C53.0438 26.7026 53.6844 27.3335 53.6844 28.1099C53.6798 28.8859 53.0487 29.5127 52.2631 29.5173H30.4155C29.6299 29.5173 28.9942 28.8862 28.9942 28.1099C28.994 27.3385 29.6299 26.7026 30.4155 26.7026Z" fill="white"/>
</g>
<defs>
<clipPath id="clip0_396_1175">
<rect width="40" height="40" fill="white" transform="translate(20 20)"/>
</clipPath>
</defs>
</svg>
