<svg width="80" height="80" viewBox="0 0 80 80" fill="none" xmlns="http://www.w3.org/2000/svg">
<circle cx="40" cy="40" r="40" fill="#11215B"/>
<path d="M60.1001 22H21.819C21.3657 22 21 22.3657 21 22.819V48.3466C21 48.805 21.3709 49.1759 21.8293 49.1759H39.3988V53.3738H34.418C33.9595 53.3738 33.5887 53.7447 33.5887 54.2031V56.1707C33.5887 56.6291 33.9595 57 34.418 57H48.0162C48.4746 57 48.8455 56.6291 48.8455 56.1707V54.2031C48.8455 53.7447 48.4746 53.3738 48.0162 53.3738H43.0353V49.1759H60.0846C60.543 49.1759 60.9139 48.805 60.9139 48.3466V22.819C60.9191 22.3657 60.5533 22 60.1001 22ZM34.5931 40.9191C34.83 41.156 34.83 41.5423 34.5931 41.7793L33.5629 42.8094C33.326 43.0464 32.9397 43.0464 32.7027 42.8094L25.8366 35.9382C25.5997 35.7013 25.5997 35.3149 25.8366 35.078L27.2943 33.6203L32.7079 28.2068C32.9448 27.9698 33.3311 27.9698 33.5681 28.2068L34.5982 29.2369C34.8352 29.4739 34.8352 29.8602 34.5982 30.0971L29.1847 35.5055L34.5931 40.9191ZM44.184 28.9176L40.3157 43.3503C40.1972 43.7932 39.7439 44.0559 39.301 43.9375L38.3171 43.6748C37.8742 43.5563 37.6115 43.103 37.7299 42.66L41.5982 28.2274C41.7167 27.7844 42.17 27.5217 42.6129 27.6402L43.5968 27.9029C44.0397 28.0213 44.3024 28.4746 44.184 28.9176ZM56.0876 35.9382L49.2163 42.8043C48.9794 43.0412 48.5931 43.0412 48.3561 42.8043L47.326 41.7741C47.089 41.5372 47.089 41.1508 47.326 40.9139L52.7344 35.5055L47.3208 30.092C47.0839 29.855 47.0839 29.4687 47.3208 29.2318L48.351 28.2016C48.5879 27.9647 48.9742 27.9647 49.2112 28.2016L54.6247 33.6152L56.0824 35.0728C56.3245 35.3149 56.3245 35.7013 56.0876 35.9382Z" fill="white"/>
</svg>
