<svg width="80" height="80" viewBox="0 0 80 80" fill="none" xmlns="http://www.w3.org/2000/svg">
<circle cx="40" cy="40" r="40" fill="#11215B"/>
<path d="M58.6403 54.3456L54.7978 50.5896C57.1534 47.1056 56.4267 42.4437 53.1189 39.7995C49.8111 37.1555 44.9955 37.3943 41.9756 40.3473C38.956 43.3002 38.714 48.0116 41.4161 51.2485C44.1184 54.4857 48.8837 55.194 52.4463 52.8877L56.2845 56.6478C56.7649 57.1174 57.5417 57.1174 58.0221 56.6478L58.636 56.0466C58.7508 55.9359 58.8422 55.8038 58.9047 55.6579C58.9672 55.512 58.9996 55.3553 59 55.197C59.0004 55.0386 58.9688 54.8818 58.907 54.7356C58.8453 54.5894 58.7546 54.4568 58.6403 54.3456ZM52.3505 48.1928C51.8571 49.2031 51.027 50.0158 49.999 50.4951C49.331 50.8122 48.5998 50.9812 47.8609 50.9853C45.1042 50.9853 42.87 48.7984 42.87 46.1049C42.87 43.4072 45.1045 41.2245 47.8609 41.2204C50.6175 41.2204 52.8516 43.4031 52.8561 46.1008C52.8516 46.8543 52.6636 47.5585 52.3505 48.1928ZM32.9379 47.6287C32.2361 47.6287 31.6724 47.0728 31.6682 46.3889C31.6682 45.7054 32.2362 45.1494 32.9379 45.1494H36.939C37.0435 43.9838 37.3399 42.8677 37.7995 41.8422H32.9379C32.2361 41.8422 31.6724 41.2864 31.6682 40.6025C31.6682 39.919 32.2362 39.3627 32.9379 39.3627H39.3448C40.6009 37.8559 42.2478 36.713 44.1103 36.0558H32.938C32.2364 36.0558 31.6725 35.5 31.6683 34.8161C31.6683 34.1326 32.2365 33.5764 32.938 33.5764H52.4549C53.1523 33.5764 53.7246 34.1323 53.7246 34.8161C53.7205 35.4997 53.1567 36.0517 52.4549 36.0558H51.4986C54.9444 37.2708 57.542 40.096 58.4109 43.58V25.7559C58.415 23.6927 56.6858 22 54.5726 22H27.8424C25.7291 22 24 23.6886 24 25.7559V52.5872C24 54.6546 25.7291 56.3432 27.8424 56.3432H44.7534C40.6519 55.1694 37.6239 51.7636 37.01 47.6287H32.9379ZM32.9379 27.7863H52.4547C53.1521 27.7863 53.7244 28.3421 53.7244 29.026C53.7202 29.7095 53.1565 30.2617 52.4547 30.2657H32.9379C32.2361 30.2657 31.6682 29.7098 31.6682 29.026C31.6681 28.3464 32.2361 27.7863 32.9379 27.7863Z" fill="white"/>
</svg>
