<svg width="40" height="40" viewBox="0 0 40 40" fill="none" xmlns="http://www.w3.org/2000/svg">
<path d="M16.971 19.4853C15.8073 18.7605 14.908 17.9306 14.2204 16.8747C11.7321 13.0585 12.6093 7.05226 17.0966 4.7303C19.9001 3.28075 23.4882 4.03237 25.5556 6.6004C27.8103 9.4033 28.2379 12.4881 26.7964 15.8278C26.2212 17.1611 25.4278 18.3019 24.242 19.1385C24.1516 19.2012 24.0701 19.2795 23.9885 19.3533C23.9665 19.3734 23.9555 19.407 23.9048 19.4987C24.1715 19.5636 24.4227 19.6173 24.6696 19.6888C27.7508 20.5836 30.3317 22.1987 32.1125 24.9837C33.1043 26.5362 33.728 28.2362 34.0146 30.0482C34.2195 31.3523 34.3231 32.6788 34.3959 33.9987C34.4576 35.1328 33.8889 35.7949 32.701 36.1506C31.2353 36.5913 29.7212 36.6472 28.2136 36.6852C22.4061 36.8284 16.5985 36.8776 10.7932 36.5935C9.88953 36.5488 8.97927 36.3721 8.09987 36.1484C6.81053 35.8195 6.36312 35.1127 6.40279 33.7705C6.45348 32.0257 6.61878 30.301 7.10807 28.6165C8.35995 24.297 11.0929 21.4247 15.2783 19.964C15.545 19.87 15.8139 19.7783 16.0872 19.7C16.3362 19.6262 16.5941 19.5747 16.971 19.4853Z" fill="#11215B"/>
<path d="M12.1657 5.9587C9.70537 10.1895 9.8392 14.3689 12.449 18.5416C6.93052 21.2497 4.48803 25.9917 3.80547 31.9058C2.78387 31.9304 1.77118 31.9684 0.854411 31.5062C0.539898 31.3477 0.174083 30.957 0.140624 30.64C0.0313252 29.5706 -0.0690511 28.4721 0.0625533 27.4139C0.4306 24.4222 1.76003 21.8971 4.07091 19.928C5.17505 18.9881 6.43533 18.3183 7.82499 17.9008C7.97444 17.8562 8.12389 17.807 8.3581 17.7356C6.73869 16.8381 5.69032 15.5588 5.18844 13.8464C4.68432 12.1251 4.865 10.4641 5.70816 8.89232C7.0309 6.42531 9.71429 5.21971 12.1657 5.9587ZM27.5813 18.5393C30.2669 14.3309 30.2535 10.1202 27.8556 5.82698C29.1003 5.44967 30.3115 5.53897 31.4647 6.11721C33.6217 7.20002 34.8106 8.99055 34.989 11.375C35.1742 13.8375 34.2909 15.8692 32.2454 17.3315C32.0536 17.4677 31.8328 17.5659 31.5807 17.7066C31.7012 17.7691 31.7837 17.8271 31.8774 17.8584C36.4211 19.3877 38.9684 22.6384 39.8562 27.2531C40.0525 28.2667 39.9989 29.3406 39.9744 30.3832C39.9566 31.082 39.477 31.5375 38.81 31.6647C37.9758 31.8255 37.1237 31.888 36.2248 31.9996C35.6069 25.9761 33.1243 21.2653 27.5813 18.5393Z" fill="#11215B"/>
</svg>
