<svg width="40" height="40" viewBox="0 0 40 40" fill="none" xmlns="http://www.w3.org/2000/svg">
<path d="M39.9999 35.8486C39.9999 36.4271 39.898 36.9666 39.693 37.4677C39.4892 37.9694 39.1977 38.4105 38.8203 38.7911C38.4429 39.1716 38.0021 39.468 37.4985 39.6801C36.9955 39.8922 36.4445 39.9993 35.8467 40H4.43706C3.83924 40 3.27286 39.8935 2.73817 39.6801C2.20348 39.4666 1.73125 39.1709 1.32147 38.7911C0.911637 38.4112 0.589063 37.9708 0.353645 37.4677C0.117864 36.9659 7.7215e-08 36.4265 7.7215e-08 35.8486L0 13.0792C0 11.9228 0.416772 10.9416 1.25037 10.1354C2.08433 9.32957 3.09922 8.92652 4.29516 8.92652H35.7045C36.9008 8.92652 37.9157 9.32962 38.75 10.1354C39.5828 10.9416 40 11.9229 40 13.0792V19.2847H29.2857C28.0893 19.2847 27.0745 19.6804 26.2408 20.4714C25.4073 21.2635 24.9902 22.2373 24.9902 23.3923C25.0215 24.1837 25.1946 24.8834 25.5099 25.4916C25.7616 26.0088 26.1788 26.4803 26.7605 26.9066C27.3423 27.3329 28.1842 27.5464 29.2857 27.5464H39.9999V35.8512V35.8486H39.9999ZM33.5811 6.82822H12.1526C13.8521 5.97657 15.4572 5.15492 16.9673 4.36362C18.2895 3.69381 19.5954 3.02436 20.8851 2.35591C22.1748 1.68681 23.1821 1.16956 23.9062 0.803513C25.0076 0.225312 25.9904 -0.0410382 26.8554 0.00511185C27.7204 0.0505619 28.452 0.195362 29.0498 0.438462C29.7433 0.773563 30.3403 1.21436 30.844 1.76151L33.5811 6.82822ZM27.1623 23.3924C27.1623 22.8139 27.366 22.3276 27.7755 21.9323C28.1842 21.5369 28.6871 21.339 29.2857 21.339C29.8842 21.339 30.3871 21.5369 30.7959 21.9323C31.2046 22.3276 31.409 22.8139 31.409 23.3924C31.409 23.9709 31.2046 24.4653 30.7959 24.8761C30.387 25.2869 29.8842 25.4917 29.2857 25.4917C28.6871 25.4917 28.1842 25.2869 27.7755 24.8761C27.366 24.4653 27.1623 23.9709 27.1623 23.3924Z" fill="#11215B"/>
</svg>
