<svg width="40" height="40" viewBox="0 0 40 40" fill="none" xmlns="http://www.w3.org/2000/svg">
<path d="M18.6278 38.791C19.5174 39.0697 20.4865 39.0697 21.3762 38.791C27.445 36.8944 29.6373 35.3454 29.6373 35.3454C35.9444 31.4256 36 26.2789 36 26.2789V10.0353C36 9.23901 35.2891 8.55495 34.4153 8.52599C29.9392 8.38122 23.3422 5.3844 20.9274 4.21173C20.3475 3.92942 19.6525 3.92942 19.0726 4.21173C16.6578 5.38078 10.0648 8.38122 5.58471 8.52599C4.71093 8.55495 4 9.23901 4 10.0353V26.2789C4 26.2789 4.0556 31.4256 10.3627 35.3454C10.3666 35.3454 12.559 36.8944 18.6278 38.791Z" fill="#11215B"/>
<path d="M18.4486 28C18.0861 28 17.7187 27.8614 17.4421 27.5842L12.4186 22.5466C11.8605 21.9875 11.8605 21.0841 12.4186 20.5297C12.9768 19.9705 13.8784 19.9705 14.4318 20.5297L18.4486 24.554L26.5682 16.4194C27.1264 15.8602 28.028 15.8602 28.5814 16.4194C29.1395 16.9786 29.1395 17.8819 28.5814 18.4363L19.4552 27.5794C19.1785 27.8614 18.816 28 18.4486 28Z" fill="#F7F7F8"/>
</svg>
