<svg width="80" height="80" viewBox="0 0 80 80" fill="none" xmlns="http://www.w3.org/2000/svg">
<circle cx="40" cy="40" r="40" fill="#11215B"/>
<path d="M51.2923 37.1937C51.2923 30.3745 44.7246 24.8262 36.6514 24.8262C28.578 24.8262 22.0103 30.3746 22.0103 37.1937C22.0103 40.2025 23.3016 43.1019 25.6139 45.3196C25.9006 45.7665 25.9385 48.1743 25.694 50.472L25.4968 52.3221L27.0533 51.3037C28.8311 50.1397 31.1081 48.8931 31.7348 48.8492C33.3085 49.3219 34.9623 49.562 36.6514 49.562C44.7246 49.5621 51.2923 44.0136 51.2923 37.1937ZM29.636 38.6787C28.7062 38.6831 27.9486 37.9314 27.9452 37.0017C27.94 36.0719 28.6916 35.3144 29.6222 35.3092C30.5502 35.3049 31.3095 36.0573 31.313 36.9862C31.3173 37.9177 30.5657 38.6744 29.636 38.6787ZM36.6953 38.6787C35.7655 38.6831 35.0088 37.9314 35.0045 37.0017C35.0002 36.0719 35.7518 35.3144 36.6815 35.3092C37.6113 35.3049 38.3689 36.0573 38.3723 36.9862C38.3767 37.9177 37.6259 38.6744 36.6953 38.6787ZM43.3954 38.6787C42.4656 38.6831 41.7089 37.9314 41.7046 37.0017C41.7003 36.0719 42.4518 35.3144 43.3816 35.3092C44.3113 35.3049 45.0689 36.0573 45.0724 36.9862C45.0767 37.9177 44.326 38.6744 43.3954 38.6787Z" fill="white"/>
<path d="M57.6836 40.1906C57.6836 36.7316 55.9549 33.4085 52.94 31.0729C52.5544 30.7759 52.0017 30.8448 51.7029 31.2305C51.6194 31.3381 51.5721 31.4586 51.5454 31.5834C52.5389 33.3655 53.1105 35.3473 53.1105 37.4444C53.1105 44.1343 47.4579 49.7275 39.9776 51.0008C39.8975 51.1128 39.8347 51.2376 39.8132 51.3831C39.7443 51.8652 40.0783 52.3119 40.5604 52.3816C43.0321 52.7372 45.6113 52.5504 47.9581 51.8453C48.5848 51.8893 50.8627 53.1358 52.6405 54.2997L54.1978 55.319L53.9998 53.4681C53.7545 51.1712 53.7915 48.7641 54.048 48.3535C56.3914 46.0989 57.6827 43.1994 57.6836 40.1906Z" fill="white"/>
</svg>
