<svg width="80" height="80" viewBox="0 0 80 80" fill="none" xmlns="http://www.w3.org/2000/svg">
<circle cx="40" cy="40" r="40" fill="#11215B"/>
<path d="M59.9999 55.8486C59.9999 56.4271 59.898 56.9666 59.693 57.4677C59.4892 57.9694 59.1977 58.4105 58.8203 58.7911C58.4429 59.1716 58.0021 59.468 57.4985 59.6801C56.9955 59.8922 56.4445 59.9993 55.8467 60H24.4371C23.8392 60 23.2729 59.8935 22.7382 59.6801C22.2035 59.4666 21.7313 59.1709 21.3215 58.7911C20.9116 58.4112 20.5891 57.9708 20.3536 57.4677C20.1179 56.9659 20 56.4265 20 55.8486L20 33.0792C20 31.9228 20.4168 30.9416 21.2504 30.1354C22.0843 29.3296 23.0992 28.9265 24.2952 28.9265H55.7045C56.9008 28.9265 57.9157 29.3296 58.75 30.1354C59.5828 30.9416 60 31.9229 60 33.0792V39.2847H49.2857C48.0893 39.2847 47.0745 39.6804 46.2408 40.4714C45.4073 41.2635 44.9902 42.2373 44.9902 43.3923C45.0215 44.1837 45.1946 44.8834 45.5099 45.4916C45.7616 46.0088 46.1788 46.4803 46.7605 46.9066C47.3423 47.3329 48.1842 47.5464 49.2857 47.5464H59.9999V55.8512V55.8486H59.9999ZM53.5811 26.8282H32.1526C33.8521 25.9766 35.4572 25.1549 36.9673 24.3636C38.2895 23.6938 39.5954 23.0244 40.8851 22.3559C42.1748 21.6868 43.1821 21.1696 43.9062 20.8035C45.0076 20.2253 45.9904 19.959 46.8554 20.0051C47.7204 20.0506 48.452 20.1954 49.0498 20.4385C49.7433 20.7736 50.3403 21.2144 50.844 21.7615L53.5811 26.8282ZM47.1623 43.3924C47.1623 42.8139 47.366 42.3276 47.7755 41.9323C48.1842 41.5369 48.6871 41.339 49.2857 41.339C49.8842 41.339 50.3871 41.5369 50.7959 41.9323C51.2046 42.3276 51.409 42.8139 51.409 43.3924C51.409 43.9709 51.2046 44.4653 50.7959 44.8761C50.387 45.2869 49.8842 45.4917 49.2857 45.4917C48.6871 45.4917 48.1842 45.2869 47.7755 44.8761C47.366 44.4653 47.1623 43.9709 47.1623 43.3924Z" fill="white"/>
</svg>
