<svg width="80" height="80" viewBox="0 0 80 80" fill="none" xmlns="http://www.w3.org/2000/svg">
<circle cx="40" cy="40" r="40" fill="#11215B"/>
<path d="M60 38.3889C60 36.0881 58.1344 34.2225 55.8336 34.2225H45.3148C45.0844 34.2225 44.8992 34.035 44.8992 33.8053L44.9203 33.6764C45.8398 31.3444 46.1383 28.8131 45.7867 26.3311C44.8063 22.8397 42.7297 21.8319 41.1047 22.0561C39.4531 22.3366 38.2672 23.7991 38.3328 25.4725C38.3328 30.0491 34.7844 35.0491 31.6094 37.2412C31.3836 37.3975 31.25 37.6537 31.25 37.928V54.7881C31.25 55.1866 31.5336 55.5303 31.925 55.6069C32.5211 55.7209 33.0602 55.8319 33.5703 55.9389C35.8133 56.4741 38.1117 56.7381 40.4172 56.7248H51.25C54.5117 56.7248 55 54.8912 55 53.8076C55 53.2334 54.868 52.667 54.6133 52.1514C56.4453 51.2225 57.1891 48.9928 56.2797 47.1514C57.5383 46.5116 58.332 45.2186 58.3328 43.8061C58.3336 43.1819 58.1773 42.5678 57.8781 42.0202C59.1883 41.2811 60 39.8936 60 38.3889Z" fill="white"/>
<path d="M28.75 37.9721C28.75 37.0518 28.0039 36.3057 27.0836 36.3057H21.6664C20.7461 36.3057 20 37.0518 20 37.9721V56.3064C20 57.226 20.7461 57.9729 21.6664 57.9729H27.0828C28.0031 57.9729 28.7492 57.226 28.7492 56.3064V37.9721H28.75ZM26.25 53.3885C26.25 54.0791 25.6898 54.6385 25 54.6385C24.3102 54.6385 23.75 54.0791 23.75 53.3885C23.75 52.6986 24.3102 52.1385 25 52.1385C25.6898 52.1385 26.25 52.6986 26.25 53.3885Z" fill="white"/>
</svg>
