<svg width="80" height="80" viewBox="0 0 80 80" fill="none" xmlns="http://www.w3.org/2000/svg">
<circle cx="40" cy="40" r="40" fill="#11215B"/>
<path d="M56.0046 48.4927C56.0046 46.0083 53.9906 43.9941 51.506 43.9941H28.4985C26.0141 43.9941 24 46.0083 24 48.4927V50.333C24 51.4774 24.3569 52.5932 25.0209 53.5252C28.1058 57.8546 33.1526 59.9993 39.9958 59.9993C46.8374 59.9993 51.8869 57.8556 54.9792 53.5284C55.6461 52.5952 56.0046 51.4768 56.0046 50.33V48.4927Z" fill="white"/>
<path d="M49.9978 30.0017C49.9978 24.4779 45.5199 20 39.9961 20C36.6945 20 33.7665 21.5997 31.945 24.0663C31.8034 24.0221 31.6529 23.9982 31.4967 23.9982H26.5003C25.6717 23.9982 25 24.6699 25 25.4985V36.498C25 39.5361 27.4629 41.9989 30.501 41.9989H31.0011V41.9903C31.0078 41.9903 31.0146 41.9903 31.0215 41.9903C32.1235 41.9903 33.0168 41.097 33.0168 39.995C33.0168 38.893 32.1235 37.9996 31.0215 37.9996C30.3826 37.9996 29.8139 38.2999 29.4487 38.7668C28.5935 38.3695 28.0005 37.503 28.0005 36.498V35.9969H29.4964C30.2579 35.9969 30.9626 35.7538 31.5371 35.3409C33.3093 38.1429 36.4355 40.0036 39.9961 40.0036C45.5199 40.0036 49.9978 35.5256 49.9978 30.0017ZM29.9965 29.7898C29.995 29.8603 29.9943 29.9309 29.9943 30.0017C29.9943 30.0726 29.995 30.1432 29.9965 30.2137V32.4963C29.9965 32.7725 29.7726 32.9964 29.4964 32.9964H28.0005V26.9987H29.9965V29.7898Z" fill="white"/>
</svg>
