<svg width="80" height="80" viewBox="0 0 80 80" fill="none" xmlns="http://www.w3.org/2000/svg">
<circle cx="40" cy="40" r="40" fill="#11215B"/>
<path d="M36.9705 39.4853C35.8068 38.7605 34.9076 37.9306 34.2199 36.8747C31.7316 33.0585 32.6088 27.0523 37.0961 24.7303C39.8996 23.2808 43.4877 24.0324 45.5551 26.6004C47.8098 29.4033 48.2374 32.4881 46.796 35.8278C46.2207 37.1611 45.4273 38.3019 44.2415 39.1385C44.1512 39.2012 44.0696 39.2795 43.9881 39.3533C43.966 39.3734 43.955 39.407 43.9043 39.4987C44.171 39.5636 44.4222 39.6173 44.6691 39.6888C47.7503 40.5836 50.3312 42.1987 52.112 44.9837C53.1038 46.5362 53.7276 48.2362 54.0141 50.0482C54.219 51.3523 54.3226 52.6788 54.3954 53.9987C54.4571 55.1328 53.8884 55.7949 52.7005 56.1506C51.2348 56.5913 49.7207 56.6472 48.2131 56.6852C42.4056 56.8284 36.598 56.8776 30.7927 56.5935C29.889 56.5488 28.9788 56.3721 28.0994 56.1484C26.81 55.8195 26.3626 55.1127 26.4023 53.7705C26.453 52.0257 26.6183 50.301 27.1076 48.6165C28.3595 44.297 31.0924 41.4247 35.2778 39.964C35.5445 39.87 35.8134 39.7783 36.0867 39.7C36.3358 39.6262 36.5936 39.5747 36.9705 39.4853Z" fill="white"/>
<path d="M32.1657 25.9587C29.7054 30.1895 29.8392 34.3689 32.449 38.5416C26.9305 41.2497 24.488 45.9917 23.8055 51.9058C22.7839 51.9304 21.7712 51.9684 20.8544 51.5062C20.5399 51.3477 20.1741 50.957 20.1406 50.64C20.0313 49.5706 19.9309 48.4721 20.0626 47.4139C20.4306 44.4222 21.76 41.8971 24.0709 39.928C25.1751 38.9881 26.4353 38.3183 27.825 37.9008C27.9744 37.8562 28.1239 37.807 28.3581 37.7356C26.7387 36.8381 25.6903 35.5588 25.1884 33.8464C24.6843 32.1251 24.865 30.4641 25.7082 28.8923C27.0309 26.4253 29.7143 25.2197 32.1657 25.9587ZM47.5813 38.5393C50.2669 34.3309 50.2535 30.1202 47.8556 25.827C49.1003 25.4497 50.3115 25.539 51.4647 26.1172C53.6217 27.2 54.8106 28.9906 54.989 31.375C55.1742 33.8375 54.2909 35.8692 52.2454 37.3315C52.0536 37.4677 51.8328 37.5659 51.5807 37.7066C51.7012 37.7691 51.7837 37.8271 51.8774 37.8584C56.4211 39.3877 58.9684 42.6384 59.8562 47.2531C60.0525 48.2667 59.9989 49.3406 59.9744 50.3832C59.9566 51.082 59.477 51.5375 58.81 51.6647C57.9758 51.8255 57.1237 51.888 56.2248 51.9996C55.6069 45.9761 53.1243 41.2653 47.5813 38.5393Z" fill="white"/>
</svg>
