<svg width="30" height="30" viewBox="0 0 30 30" fill="none" xmlns="http://www.w3.org/2000/svg">
<path d="M12.7279 14.614C11.8552 14.0704 11.1807 13.4479 10.665 12.6561C8.79875 9.79387 9.45665 5.2892 12.8222 3.54773C14.9248 2.46056 17.6159 3.02428 19.1664 4.9503C20.8574 7.05248 21.1781 9.36605 20.097 11.8709C19.6656 12.8708 19.0705 13.7264 18.1812 14.3539C18.1134 14.4009 18.0523 14.4596 17.9911 14.515C17.9746 14.5301 17.9663 14.5552 17.9283 14.624C18.1283 14.6727 18.3167 14.7129 18.5019 14.7666C20.8128 15.4377 22.7484 16.649 24.0841 18.7378C24.8279 19.9021 25.2957 21.1772 25.5106 22.5361C25.6643 23.5142 25.742 24.5091 25.7966 25.499C25.8429 26.3496 25.4164 26.8462 24.5254 27.113C23.4262 27.4435 22.2906 27.4854 21.1599 27.5139C16.8042 27.6213 12.4486 27.6582 8.09457 27.4451C7.41684 27.4116 6.73415 27.279 6.0746 27.1113C5.10759 26.8647 4.77203 26.3345 4.80179 25.3279C4.83981 24.0192 4.96378 22.7257 5.33075 21.4624C6.26966 18.2227 8.31938 16.0685 11.4584 14.973C11.6584 14.9025 11.8601 14.8337 12.0651 14.775C12.2519 14.7197 12.4453 14.6811 12.7279 14.614Z" fill="#02040E"/>
<path d="M9.12428 4.46951C7.27903 7.64258 7.3794 10.7771 9.33674 13.9067C5.19789 15.9378 3.36602 19.4943 2.85411 23.9299C2.0879 23.9483 1.32839 23.9768 0.640808 23.6301C0.404924 23.5113 0.130562 23.2182 0.105468 22.9805C0.0234939 22.1784 -0.0517884 21.3546 0.046915 20.5609C0.32295 18.3171 1.32002 16.4233 3.05318 14.9465C3.88129 14.2416 4.8265 13.7392 5.86874 13.4261C5.98083 13.3926 6.09291 13.3558 6.26857 13.3022C5.05402 12.6291 4.26774 11.6696 3.89133 10.3853C3.51324 9.09432 3.64875 7.84853 4.28112 6.66973C5.27317 4.81947 7.28572 3.91527 9.12428 4.46951ZM20.686 13.905C22.7002 10.7487 22.6901 7.59067 20.8917 4.37072C21.8252 4.08774 22.7336 4.15472 23.5985 4.5884C25.2163 5.4005 26.1079 6.7434 26.2418 8.53171C26.3806 10.3786 25.7182 11.9024 24.1841 12.9991C24.0402 13.1013 23.8746 13.1749 23.6855 13.2804C23.7759 13.3273 23.8378 13.3708 23.908 13.3943C27.3158 14.5413 29.2263 16.9793 29.8921 20.4403C30.0394 21.2005 29.9992 22.0059 29.9808 22.7879C29.9674 23.312 29.6077 23.6536 29.1075 23.749C28.4818 23.8696 27.8428 23.9165 27.1686 24.0002C26.7052 19.4826 24.8432 15.9495 20.686 13.905Z" fill="#02040E"/>
</svg>
