<svg width="30" height="30" viewBox="0 0 30 30" fill="none" xmlns="http://www.w3.org/2000/svg">
<g clip-path="url(#clip0_1025_379)">
<path d="M27.3392 23.7012C29.0819 21.2109 30 18.293 30 15.2344C30 7.08984 23.3918 0.46875 15.2631 0.46875C7.13449 0.46875 0.526306 7.08984 0.526306 15.2344C0.526306 23.3789 7.13449 30 15.2631 30C17.5965 30 19.9064 29.4434 21.9708 28.3828L28.1053 29.9707C28.1813 29.9883 28.2631 30 28.3392 30C28.6023 30 28.8596 29.8887 29.0409 29.6895C29.2748 29.4258 29.345 29.0566 29.2222 28.7285L27.3392 23.7012ZM10.8596 16.7285C10.3275 17.0391 9.66666 17.0391 9.13449 16.7285C8.60233 16.418 8.27484 15.8496 8.27484 15.2344C8.27484 14.6191 8.60233 14.0449 9.13449 13.7402C9.66666 13.4297 10.3275 13.4297 10.8596 13.7402C11.3918 14.0508 11.7193 14.6191 11.7193 15.2344C11.7251 15.8496 11.3918 16.4238 10.8596 16.7285ZM16.1228 16.7285C15.5906 17.0391 14.9298 17.0391 14.3977 16.7285C13.8655 16.418 13.538 15.8496 13.538 15.2344C13.538 14.6191 13.8655 14.0449 14.3977 13.7402C14.9298 13.4297 15.5906 13.4297 16.1228 13.7402C16.655 14.0508 16.9824 14.6191 16.9824 15.2344C16.9883 15.8496 16.6608 16.4238 16.1228 16.7285ZM21.3918 16.7285C20.8596 17.0391 20.1988 17.0391 19.6667 16.7285C19.1345 16.418 18.807 15.8496 18.807 15.2344C18.807 14.6191 19.1345 14.0449 19.6667 13.7402C20.1988 13.4297 20.8596 13.4297 21.3918 13.7402C21.924 14.0508 22.2515 14.6191 22.2515 15.2344C22.2515 15.8496 21.924 16.4238 21.3918 16.7285Z" fill="black"/>
</g>
<defs>
<clipPath id="clip0_1025_379">
<rect width="30" height="30" fill="white"/>
</clipPath>
</defs>
</svg>
