<svg width="30" height="30" viewBox="0 0 30 30" fill="none" xmlns="http://www.w3.org/2000/svg">
<path d="M23.3353 29.9923C23.0949 29.9933 22.8578 29.9337 22.6438 29.8187L14.9775 25.6049L7.31107 29.8187C7.06213 29.9561 6.78145 30.0174 6.50095 29.9957C6.22045 29.974 5.95138 29.8701 5.72432 29.6959C5.49726 29.5216 5.32133 29.2839 5.21651 29.0099C5.1117 28.7359 5.08222 28.4365 5.13141 28.1458L6.63462 19.2605L0.441388 12.9477C0.248161 12.7453 0.111089 12.4914 0.0448822 12.2134C-0.021325 11.9353 -0.0141682 11.6436 0.0655848 11.3695C0.152711 11.089 0.312978 10.8398 0.528199 10.6501C0.74342 10.4604 1.00498 10.3379 1.28319 10.2963L9.8515 8.98644L13.6246 0.890278C13.7477 0.62345 13.9398 0.39842 14.1791 0.240965C14.4184 0.0835106 14.6951 0 14.9775 0C15.2598 0 15.5365 0.0835106 15.7758 0.240965C16.0151 0.39842 16.2073 0.62345 16.3303 0.890278L20.1485 8.97065L28.7168 10.2806C28.995 10.3221 29.2566 10.4446 29.4718 10.6343C29.687 10.824 29.8473 11.0732 29.9344 11.3537C30.0142 11.6278 30.0213 11.9195 29.9551 12.1976C29.8889 12.4756 29.7518 12.7295 29.5586 12.9319L23.3654 19.2447L24.8686 28.13C24.9223 28.4259 24.8942 28.7317 24.7876 29.0113C24.6811 29.291 24.5005 29.5328 24.2673 29.7082C23.9951 29.9084 23.6673 30.0084 23.3353 29.9923Z" fill="#02040E"/>
</svg>
