<svg width="30" height="30" viewBox="0 0 30 30" fill="none" xmlns="http://www.w3.org/2000/svg">
<path d="M30 12.2719C30 10.5463 28.6008 9.1471 26.8752 9.1471H18.9861C18.8133 9.1471 18.6744 9.00647 18.6744 8.83421L18.6902 8.73753C19.3799 6.9885 19.6037 5.09007 19.34 3.22854C18.6047 0.609986 17.0473 -0.145873 15.8285 0.022291C14.5898 0.232643 13.7004 1.32952 13.7496 2.5846C13.7496 6.01702 11.0883 9.76702 8.70703 11.4112C8.5377 11.5283 8.4375 11.7205 8.4375 11.9262V24.5713C8.4375 24.8701 8.6502 25.128 8.94375 25.1854C9.39082 25.2709 9.79512 25.3541 10.1777 25.4344C11.86 25.8358 13.5838 26.0338 15.3129 26.0239H23.4375C25.8838 26.0239 26.25 24.6487 26.25 23.836C26.25 23.4053 26.151 22.9805 25.96 22.5938C27.334 21.8971 27.8918 20.2248 27.2098 18.8438C28.1537 18.3639 28.749 17.3942 28.7496 16.3348C28.7502 15.8666 28.633 15.4061 28.4086 14.9953C29.3912 14.441 30 13.4004 30 12.2719Z" fill="#02040E"/>
<path d="M6.5625 11.9588C6.5625 11.2686 6.00293 10.709 5.3127 10.709H1.2498C0.55957 10.709 0 11.2686 0 11.9588V25.7096C0 26.3992 0.55957 26.9594 1.2498 26.9594H5.31211C6.00234 26.9594 6.56191 26.3992 6.56191 25.7096V11.9588H6.5625ZM4.6875 23.5211C4.6875 24.0391 4.26738 24.4586 3.75 24.4586C3.23262 24.4586 2.8125 24.0391 2.8125 23.5211C2.8125 23.0037 3.23262 22.5836 3.75 22.5836C4.26738 22.5836 4.6875 23.0037 4.6875 23.5211Z" fill="#02040E"/>
</svg>
