<svg width="30" height="30" viewBox="0 0 30 30" fill="none" xmlns="http://www.w3.org/2000/svg">
<g clip-path="url(#clip0_1024_365)">
<path d="M20.1855 9.375C19.3359 4.14258 17.332 0.46875 15 0.46875C12.668 0.46875 10.6641 4.14258 9.81445 9.375H20.1855ZM9.375 15C9.375 16.3008 9.44531 17.5488 9.56836 18.75H20.4258C20.5488 17.5488 20.6191 16.3008 20.6191 15C20.6191 13.6992 20.5488 12.4512 20.4258 11.25H9.56836C9.44531 12.4512 9.375 13.6992 9.375 15ZM28.4004 9.375C26.7246 5.39648 23.332 2.32031 19.1426 1.07812C20.5723 3.05859 21.5566 6.04102 22.0723 9.375H28.4004ZM10.8516 1.07812C6.66797 2.32031 3.26953 5.39648 1.59961 9.375H7.92773C8.4375 6.04102 9.42188 3.05859 10.8516 1.07812ZM29.0273 11.25H22.3066C22.4297 12.4805 22.5 13.7402 22.5 15C22.5 16.2598 22.4297 17.5195 22.3066 18.75H29.0215C29.3438 17.5488 29.5254 16.3008 29.5254 15C29.5254 13.6992 29.3438 12.4512 29.0273 11.25ZM7.5 15C7.5 13.7402 7.57031 12.4805 7.69336 11.25H0.972656C0.65625 12.4512 0.46875 13.6992 0.46875 15C0.46875 16.3008 0.65625 17.5488 0.972656 18.75H7.6875C7.57031 17.5195 7.5 16.2598 7.5 15ZM9.81445 20.625C10.6641 25.8574 12.668 29.5312 15 29.5312C17.332 29.5312 19.3359 25.8574 20.1855 20.625H9.81445ZM19.1484 28.9219C23.332 27.6797 26.7305 24.6035 28.4062 20.625H22.0781C21.5625 23.959 20.5781 26.9414 19.1484 28.9219ZM1.59961 20.625C3.27539 24.6035 6.66797 27.6797 10.8574 28.9219C9.42773 26.9414 8.44336 23.959 7.92773 20.625H1.59961Z" fill="#02040E"/>
</g>
<defs>
<clipPath id="clip0_1024_365">
<rect width="30" height="30" fill="white"/>
</clipPath>
</defs>
</svg>
