<svg width="30" height="30" viewBox="0 0 30 30" fill="none" xmlns="http://www.w3.org/2000/svg">
<path d="M12.375 15.25C16.4375 15.25 19.625 12.0625 19.625 7.875C19.625 3.8125 16.3125 0.5 12.375 0.5C8.3125 0.5 5 3.875 5 7.875C5 12.0625 8.3125 15.25 12.375 15.25ZM19.5625 18.375C18.1875 17.375 16.375 16.9375 14.6875 16.9375H10.4375C8.75 16.9375 6.9375 17.375 5.5625 18.3125C3.0625 20 1.375 22.875 1.375 26.125V26.6875C1.375 29.4375 5.375 29.5 10.5 29.5H14.75C19.875 29.5 23.875 29.5 23.875 26.6875V26.125C23.875 22.875 22.125 20 19.5625 18.375Z" fill="black"/>
<path d="M25.375 16.625C24.6875 16.1875 23.5 15.375 22.4375 15.25C24.1875 14.375 25.5625 12.625 25.5625 10.375C25.5625 7.3125 23.375 4.6875 20.4375 4.6875C21.5625 5.875 21.875 7.8125 21.625 9.5C21.25 12.25 19.625 14.3125 17.5 15.375C18.8125 15.5 20.25 16.4375 21.3125 17.1875C23.6875 18.6875 25.25 21.375 25.25 24.375V25.1875C27.375 25.0625 28.75 24.5625 28.75 23.1875V22.75C28.9375 20.5 26.625 17.375 25.375 16.625Z" fill="black"/>
</svg>
