<svg width="50" height="50" viewBox="0 0 50 50" fill="none" xmlns="http://www.w3.org/2000/svg">
<circle cx="25" cy="25" r="25" fill="#29376B"/>
<path d="M25.0001 15C23.158 15.0006 21.3518 15.51 19.7809 16.472C18.21 17.434 16.9353 18.8112 16.0974 20.4517C15.2596 22.0922 14.8911 23.9323 15.0328 25.7689C15.1744 27.6056 15.8206 29.3674 16.9001 30.86L16.0001 33.6C15.9698 33.6877 15.9649 33.7821 15.9862 33.8724C16.0074 33.9627 16.0539 34.0451 16.1201 34.11C16.1852 34.176 16.2671 34.223 16.357 34.2459C16.4469 34.2688 16.5413 34.2668 16.6301 34.24L19.4801 33.32C20.7799 34.1867 22.2647 34.7368 23.8155 34.9262C25.3662 35.1156 26.9398 34.9391 28.41 34.4107C29.8802 33.8823 31.2061 33.0168 32.2815 31.8835C33.3569 30.7503 34.1519 29.3808 34.6026 27.885C35.0533 26.3891 35.1473 24.8085 34.8769 23.2698C34.6066 21.7311 33.9796 20.2771 33.046 19.0244C32.1125 17.7717 30.8984 16.7552 29.5011 16.0563C28.1039 15.3575 26.5623 14.9957 25.0001 15ZM30.8201 29.12C30.6146 29.4907 30.328 29.81 29.9816 30.0542C29.6353 30.2984 29.2382 30.461 28.8201 30.53C28.3001 30.64 27.6101 30.73 25.3201 29.78C23.2842 28.7955 21.5554 27.2742 20.3201 25.38C19.6422 24.5159 19.2289 23.4739 19.1301 22.38C19.1145 21.9257 19.1956 21.4733 19.3679 21.0526C19.5403 20.632 19.8001 20.2527 20.1301 19.94C20.4078 19.7012 20.7638 19.573 21.1301 19.58H21.4601C21.7501 19.58 21.9001 19.58 22.1001 20.07C22.3001 20.56 22.9201 22.07 22.9901 22.23C23.0426 22.3088 23.0747 22.3994 23.0834 22.4937C23.0921 22.588 23.0772 22.683 23.0401 22.77C22.9543 22.9394 22.843 23.0945 22.7101 23.23C22.5701 23.4 22.4201 23.53 22.2801 23.71C22.184 23.7803 22.1182 23.8845 22.0959 24.0014C22.0736 24.1183 22.0966 24.2394 22.1601 24.34C22.6008 25.0814 23.1464 25.755 23.7801 26.34C24.4646 26.9677 25.2621 27.4597 26.1301 27.79C26.244 27.8454 26.3722 27.8646 26.4973 27.8449C26.6225 27.8252 26.7386 27.7677 26.8301 27.68C27.111 27.3635 27.3715 27.0295 27.6101 26.68C27.6829 26.5622 27.7967 26.4755 27.9297 26.4367C28.0627 26.3979 28.2053 26.4098 28.3301 26.47C28.6001 26.56 30.0301 27.27 30.3301 27.41C30.6301 27.55 30.8201 27.63 30.8901 27.75C30.9949 28.2043 30.9707 28.6788 30.8201 29.12Z" fill="white"/>
</svg>
