<svg width="50" height="50" viewBox="0 0 50 50" fill="none" xmlns="http://www.w3.org/2000/svg">
<circle cx="25" cy="25" r="25" fill="#29376B"/>
<g clip-path="url(#clip0_404_1261)">
<path d="M27.2851 26.8721C26.1572 27.7759 25.4534 28.2242 24.7513 28.2242C24.0772 28.2242 23.3963 27.8042 22.3434 26.9838L16.0759 32.4992H33.7263L27.3568 26.8184C27.3334 26.8354 27.3072 26.8567 27.2851 26.8721Z" fill="white"/>
<path d="M19.8517 25.0553C18.3637 23.9078 16.6475 22.5798 15 21.2773V31.6744C15 31.7078 15.0158 31.7357 15.0192 31.7665L21.3379 26.2057C20.88 25.8482 20.3888 25.4703 19.8517 25.0553Z" fill="white"/>
<path d="M34.9507 31.9159C34.9761 31.8405 34.9999 31.7614 34.9999 31.6743V20.8359C33.022 22.3743 30.1595 24.6039 28.3516 26.0305L34.9507 31.9159Z" fill="white"/>
<path d="M33.75 17.5H16.25C15.7937 17.5 15 18.2946 15 18.75V19.735C16.8433 21.2025 18.8454 22.7471 20.5417 24.0554C21.4771 24.7775 22.3154 25.4262 22.9771 25.9429C24.7604 27.3417 24.7604 27.3417 26.5808 25.8863C28.2271 24.5704 32.6562 21.1237 35 19.3008V18.7512C35 18.2933 34.2067 17.5 33.75 17.5Z" fill="white"/>
</g>
<defs>
<clipPath id="clip0_404_1261">
<rect width="20" height="20" fill="white" transform="translate(15 15)"/>
</clipPath>
</defs>
</svg>
