<svg width="354" height="90" viewBox="0 0 354 90" fill="none" xmlns="http://www.w3.org/2000/svg">
<path d="M18.4316 71.5196V55.1045H30.527V62.0161H55.8696C60.7077 62.0161 61.7253 57.4084 61.6293 55.1045H73.7246C74.3006 65.4719 66.813 70.6556 60.7653 71.2316L18.4316 71.5196Z" fill="#D3D3D3"/>
<path fill-rule="evenodd" clip-rule="evenodd" d="M0 47.3287V1.82715H88.9872V88.5104H0V55.1042H8.06356V79.5829H80.6356V9.89071H8.06356V38.6891H18.431V16.8023H54.717C72.86 16.5143 77.4678 36.0973 65.3724 42.4329C67.3883 42.9129 71.4201 45.5432 72.5721 49.9205H59.9007C59.6128 49.1526 58.4032 47.6167 55.869 47.6167H0V47.3287ZM53.5647 26.0178H30.5259V38.6891H53.5647C57.0638 38.6891 59.9003 35.8525 59.9003 32.3535C59.9003 28.8544 57.0638 26.0178 53.5647 26.0178Z" fill="#D3D3D3"/>
<rect x="42.0449" y="73.2476" width="8.06356" height="4.03178" fill="#D3D3D3"/>
<path d="M139.1 71.4595C139.1 76.6143 137.437 80.9584 134.111 84.4919C130.827 87.9839 126.774 89.7298 121.952 89.7298C117.337 89.7298 113.471 87.8384 110.354 84.0554V88.6074H102.746V42.5264H111.039V57.6165C113.575 54.4987 117.171 52.9398 121.827 52.9398C126.691 52.9398 130.786 54.7273 134.111 58.3024C137.437 61.8359 139.1 66.2216 139.1 71.4595ZM130.869 71.4595C130.869 68.4249 129.892 65.9514 127.938 64.0392C125.984 62.0854 123.573 61.0877 120.705 61.0461C117.878 61.0045 115.488 61.9606 113.534 63.9145C111.58 65.8683 110.603 68.3002 110.603 71.2101C110.603 74.1616 111.58 76.6559 113.534 78.6928C115.488 80.6882 117.899 81.6859 120.767 81.6859C123.677 81.6859 126.088 80.7298 128 78.8175C129.913 76.8637 130.869 74.411 130.869 71.4595ZM177.209 70.836C177.209 72.3741 177.063 73.7667 176.772 75.0138H150.022C150.604 77.0508 151.747 78.672 153.451 79.8776C155.156 81.0831 157.172 81.6859 159.5 81.6859C162.243 81.6859 164.655 80.6674 166.733 78.6305H175.962C174.839 81.8314 172.719 84.4919 169.601 86.612C166.484 88.6906 163.096 89.7298 159.437 89.7298C154.366 89.7298 150.042 87.9423 146.467 84.3672C142.934 80.7921 141.167 76.4688 141.167 71.3972C141.167 66.2424 142.955 61.8775 146.53 58.3024C150.146 54.7273 154.47 52.9398 159.5 52.9398C164.239 52.9398 168.375 54.7273 171.909 58.3024C175.442 61.8359 177.209 66.0138 177.209 70.836ZM168.853 67.6558C168.354 65.7851 167.19 64.2262 165.361 62.9791C163.532 61.6904 161.516 61.0461 159.313 61.0461C157.151 61.0461 155.197 61.6489 153.451 62.8544C151.747 64.0184 150.521 65.6189 149.772 67.6558H168.853ZM216.284 88.6074H208.677V84.1801C206.473 86.2171 204.457 87.6513 202.628 88.4827C200.841 89.3141 198.824 89.7298 196.58 89.7298C191.757 89.7298 187.746 88.0046 184.545 84.5543C181.386 81.0624 179.806 76.6766 179.806 71.3972C179.806 66.1177 181.427 61.732 184.67 58.2401C187.912 54.7066 191.986 52.9398 196.891 52.9398C201.298 52.9398 205.226 54.8728 208.677 58.7389V54.0622H216.284V88.6074ZM208.427 71.4595C208.427 68.3417 207.45 65.8267 205.497 63.9145C203.584 61.9606 201.069 60.9837 197.952 60.9837C195.249 60.9837 192.921 62.0022 190.968 64.0392C189.055 66.0761 188.099 68.5288 188.099 71.3972C188.099 74.2655 189.076 76.6974 191.03 78.6928C193.025 80.6882 195.457 81.6859 198.326 81.6859C201.194 81.6859 203.584 80.709 205.497 78.7552C207.45 76.7598 208.427 74.3279 208.427 71.4595ZM255.391 77.3833C254.269 81 252.107 83.9723 248.906 86.3003C245.747 88.5866 242.192 89.7298 238.243 89.7298C233.088 89.7298 228.703 87.9631 225.086 84.4296C221.511 80.8545 219.723 76.5104 219.723 71.3972C219.723 66.3256 221.511 61.9814 225.086 58.3648C228.703 54.7481 233.026 52.9398 238.056 52.9398C242.088 52.9398 245.684 54.1038 248.844 56.4317C252.045 58.7597 254.227 61.7944 255.391 65.5357H245.913C244.209 62.5426 241.569 61.0461 237.994 61.0461C235.084 61.0461 232.694 62.023 230.823 63.9768C228.994 65.9306 228.079 68.4249 228.079 71.4595C228.079 74.3695 229.056 76.8014 231.01 78.7552C232.964 80.6674 235.375 81.6236 238.243 81.6236C241.61 81.6236 244.167 80.2102 245.913 77.3833H255.391ZM295.09 71.3972C295.09 76.4688 293.302 80.7921 289.727 84.3672C286.194 87.9423 281.891 89.7298 276.82 89.7298C271.748 89.7298 267.404 87.9423 263.787 84.3672C260.171 80.7921 258.362 76.4688 258.362 71.3972C258.362 66.3256 260.171 61.9814 263.787 58.3648C267.404 54.7481 271.748 52.9398 276.82 52.9398C281.891 52.9398 286.194 54.7481 289.727 58.3648C293.302 61.9399 295.09 66.284 295.09 71.3972ZM286.797 71.3348C286.797 68.4664 285.82 66.0346 283.866 64.0392C281.954 62.0438 279.584 61.0461 276.757 61.0461C273.93 61.0461 271.54 62.0438 269.586 64.0392C267.633 66.0346 266.656 68.4664 266.656 71.3348C266.656 74.2032 267.633 76.6351 269.586 78.6305C271.54 80.6259 273.93 81.6236 276.757 81.6236C279.584 81.6236 281.954 80.6259 283.866 78.6305C285.82 76.6351 286.797 74.2032 286.797 71.3348ZM329.177 88.6074H320.883V69.6512C320.883 67.3648 320.364 65.4318 319.324 63.8521C318.119 61.9814 316.373 61.0461 314.087 61.0461C312.05 61.0461 310.366 61.6904 309.036 62.9791C307.539 64.4757 306.791 66.5126 306.791 69.09V88.6074H298.498V54.0622H306.105V57.2424C308.724 54.374 311.904 52.9398 315.645 52.9398C319.761 52.9398 323.087 54.3948 325.622 57.3047C327.992 60.09 329.177 63.6235 329.177 67.9052V88.6074Z" fill="#D3D3D3"/>
<rect x="102.744" y="1" width="8.30114" height="41.5706" fill="#D3D3D3"/>
<path d="M142.245 32.9398C142.245 31.2639 142.915 15.8452 142.915 15.8452C139.697 20.1356 136.211 21.6552 134.87 21.8786V34.2806C134.87 36.2917 133.371 37.7472 131.519 38.3029C128.167 39.3084 124.256 37.409 121.463 36.2917C123.251 38.4146 128.226 43.157 134.535 41.6548C141.574 39.9788 142.245 34.6158 142.245 32.9398Z" fill="#D3D3D3"/>
<ellipse cx="125.821" cy="18.8619" rx="4.02227" ry="3.68708" fill="#D3D3D3"/>
<ellipse cx="275.522" cy="39.6436" rx="4.02227" ry="3.68708" fill="#D3D3D3"/>
<ellipse cx="325.987" cy="39.6436" rx="4.02227" ry="3.68708" fill="#D3D3D3"/>
<ellipse cx="286.919" cy="39.6436" rx="4.02227" ry="3.68708" fill="#D3D3D3"/>
<path fill-rule="evenodd" clip-rule="evenodd" d="M163.027 30.9287C163.027 32.2695 162.542 35.3718 160.345 36.6269C157.999 37.9677 155.318 38.6381 148.279 35.2862C150.066 38.5263 155.653 43.3307 162.692 40.9844C165.038 40.314 169.731 37.3643 169.731 30.9287V30.5935H329.951V6.45993C327.538 9.94589 324.253 11.9347 322.912 12.4933V24.5601H290.734V6.45993C287.516 10.4822 284.7 12.1581 283.695 12.4933V24.5601H254.533C254.802 15.9793 248.612 12.9402 245.483 12.4933H211.294C211.741 12.0464 212.635 10.5492 212.635 8.13587C212.635 5.72251 208.277 1.76729 205.261 0.761719C206.378 2.54939 208.411 6.66104 207.607 8.80625C206.803 10.9515 204.367 12.1581 203.25 12.4933H196.881V18.5267H242.802C247.36 19.3312 247.606 22.8842 247.159 24.5601H169.06V9.81182C156.457 10.6163 149.731 18.6385 147.943 22.549V30.9287H163.027ZM162.691 24.5602V17.8565C160.791 18.1917 156.657 19.5995 155.317 22.5491V24.5602H162.691Z" fill="#D3D3D3"/>
</svg>
